# xmcd
#
# Track frame offsets:
#	150
#	14868
#	32241
#	49755
#	65675
#	82377
#	97220
#	113627
#	130273
#	144830
#
# Disc length: 2124 seconds
#
# Revision: 2
# Processed by: cddbd v1.5.2PL0 Copyright (c) Steve Scherf et al.
# Submitted via: EasyCDDAExtractor 16.0.6.1
#
DISCID=95084a0a
DTITLE=2NE1 - Crush (Vol. 2)
DYEAR=2014
DGENRE=Pop
TTITLE0=Crush
TTITLE1=Come Back Home
TTITLE2=너 아님 안돼
TTITLE3=살아 봤으면 해
TTITLE4=착한 여자
TTITLE5=멘붕 (CL Solo)
TTITLE6=Happy
TTITLE7=Scream
TTITLE8=Baby I Miss You
TTITLE9=Come Back Home (Unplugged Version)
EXTD=
EXTT0=
EXTT1=
EXTT2=
EXTT3=
EXTT4=
EXTT5=
EXTT6=
EXTT7=
EXTT8=
EXTT9=
PLAYORDER=
